<svg width="28" height="22" viewBox="0 0 28 22" fill="none" xmlns="http://www.w3.org/2000/svg">
<path d="M27 0H1C0.446875 0 0 0.446875 0 1V21C0 21.5531 0.446875 22 1 22H27C27.5531 22 28 21.5531 28 21V1C28 0.446875 27.5531 0 27 0ZM24.475 3.40312L14.6156 11.075C14.3719 11.2656 14.0312 11.2656 13.7875 11.075L3.925 3.40312C3.88782 3.37443 3.86055 3.33483 3.84702 3.28986C3.83348 3.24489 3.83435 3.19681 3.84951 3.15236C3.86467 3.10792 3.89336 3.06933 3.93156 3.042C3.96975 3.01468 4.01554 2.99999 4.0625 3H24.3375C24.3845 2.99999 24.4303 3.01468 24.4684 3.042C24.5066 3.06933 24.5353 3.10792 24.5505 3.15236C24.5656 3.19681 24.5665 3.24489 24.553 3.28986C24.5394 3.33483 24.5122 3.37443 24.475 3.40312Z" fill="#A08040"/>
</svg>
